<?xml version="1.0" standalone="no"?>
<!DOCTYPE svg PUBLIC "-//W3C//DTD SVG 20010904//EN"
 "http://www.w3.org/TR/2001/REC-SVG-20010904/DTD/svg10.dtd">
<svg version="1.0" xmlns="http://www.w3.org/2000/svg"
 width="1000.000000pt" height="697.000000pt" viewBox="0 0 1000.000000 697.000000"
 preserveAspectRatio="xMidYMid meet">

<g transform="translate(0.000000,697.000000) scale(0.100000,-0.100000)"
fill="#000000" stroke="none">
<path d="M4664 6841 c-550 -138 -598 -155 -705 -241 -223 -179 -314 -479 -225
-745 32 -94 6 -51 485 -795 340 -530 384 -593 461 -670 139 -140 276 -195 480
-194 132 1 232 28 332 87 109 66 596 456 650 520 131 157 186 382 143 577 -20
94 -369 1151 -399 1211 -90 179 -266 319 -456 363 -36 9 -108 16 -160 16 -88
-1 -131 -9 -606 -129z m719 -76 c136 -35 253 -125 313 -240 18 -33 116 -314
219 -624 186 -559 187 -565 187 -650 0 -107 -27 -196 -84 -281 -34 -51 -86
-98 -289 -261 -348 -279 -396 -307 -544 -316 -91 -6 -174 11 -255 52 -110 56
-144 101 -571 760 -221 341 -412 643 -425 670 -82 177 -41 389 102 533 41 41
85 73 128 93 89 42 1029 278 1106 279 31 0 82 -7 113 -15z"/>
<path d="M2260 4340 l0 -120 620 0 620 0 0 120 0 120 -620 0 -620 0 0 -120z"/>
<path d="M6500 4340 l0 -120 620 0 620 0 0 120 0 120 -620 0 -620 0 0 -120z"/>
<path d="M75 3551 c-44 -18 -60 -50 -60 -116 0 -73 17 -99 74 -115 50 -14
9772 -14 9822 0 57 16 74 42 74 116 0 56 -3 67 -28 91 l-27 28 -4918 2 c-2704
1 -4926 -2 -4937 -6z"/>
<path d="M5430 2671 c-42 -13 -84 -38 -106 -63 -16 -17 -55 -159 -154 -560
l-134 -536 -60 55 c-34 30 -93 70 -133 90 -72 36 -74 36 -170 30 -167 -9 -306
-66 -441 -178 -171 -141 -301 -367 -359 -622 -23 -103 -23 -331 0 -417 61
-228 212 -340 459 -340 72 0 101 5 172 31 100 36 186 86 241 139 l40 39 0 -88
c0 -125 15 -137 189 -161 63 -9 86 -8 130 4 76 22 79 28 66 131 -19 156 -10
196 451 2008 l94 368 -28 24 c-51 45 -183 68 -257 46z m-621 -1301 c49 -25
124 -99 141 -140 12 -28 7 -55 -44 -273 -63 -266 -78 -301 -160 -381 -107
-104 -249 -176 -363 -184 l-71 -5 -41 39 c-55 52 -83 130 -89 251 -5 111 10
204 49 301 76 192 223 340 387 393 76 24 143 24 191 -1z"/>
<path d="M8832 2659 c-80 -32 -85 -44 -80 -207 l5 -137 -64 -270 c-126 -535
-401 -1574 -458 -1730 -41 -113 -41 -145 2 -196 44 -52 94 -69 206 -69 93 0
99 1 122 26 32 35 60 124 150 474 42 162 78 302 81 310 4 9 15 -9 28 -46 86
-234 421 -680 568 -755 26 -13 58 -19 107 -19 75 0 256 33 278 51 41 35 -20
133 -110 174 -64 30 -278 278 -401 464 -58 89 -109 194 -104 217 4 23 623 421
673 434 22 5 58 16 80 23 39 12 40 13 39 57 0 26 -11 69 -26 101 -22 49 -32
59 -69 73 -88 33 -131 35 -206 11 -192 -61 -541 -286 -735 -473 -37 -36 -55
-49 -53 -36 3 10 82 322 176 692 191 753 183 699 107 768 -86 78 -215 103
-316 63z"/>
<path d="M677 2336 c-50 -18 -100 -58 -126 -99 -16 -26 -36 -40 -83 -57 -112
-40 -292 -130 -325 -162 -30 -29 -33 -38 -33 -88 0 -64 20 -139 50 -188 l20
-32 57 39 c58 38 191 97 200 88 2 -3 -86 -354 -196 -780 -214 -824 -221 -859
-180 -911 36 -46 75 -60 169 -60 122 0 172 28 220 123 17 34 124 427 193 708
l10 43 78 0 78 0 41 -82 c90 -181 242 -381 434 -573 133 -133 210 -192 280
-215 59 -19 177 -8 261 25 84 34 105 50 105 83 0 64 -87 174 -147 188 -16 3
-40 10 -55 16 -36 13 -227 211 -317 328 -81 104 -191 265 -191 277 0 4 35 18
78 31 178 53 388 186 474 299 82 109 128 250 128 399 0 145 -52 266 -166 380
-84 85 -214 155 -334 180 -99 21 -302 20 -404 -1 -78 -16 -78 -16 -93 5 -33
47 -144 65 -226 36z m584 -370 c173 -37 263 -131 262 -277 -1 -237 -298 -419
-685 -419 l-110 0 7 38 c15 84 146 617 153 623 7 6 121 34 172 42 56 9 139 6
201 -7z"/>
<path d="M7869 2321 c-89 -49 -133 -138 -127 -255 3 -65 7 -79 34 -113 47 -60
114 -88 204 -87 88 2 143 20 210 69 144 106 111 287 -70 381 -54 28 -204 31
-251 5z"/>
<path d="M5880 1716 c-30 -6 -65 -18 -77 -24 -27 -15 -30 -53 -8 -72 9 -7 29
-30 46 -51 l30 -39 -162 -654 c-177 -709 -173 -687 -116 -730 23 -17 46 -21
134 -24 113 -5 169 6 197 37 9 10 34 85 56 167 63 243 135 425 227 574 146
235 318 398 479 452 59 20 104 12 104 -19 0 -10 -27 -110 -61 -223 -127 -430
-178 -678 -181 -880 -1 -87 2 -113 19 -152 27 -61 61 -78 151 -78 121 0 213
42 268 121 l27 39 -23 79 c-26 93 -25 120 20 386 36 213 96 451 160 640 68
198 65 263 -14 342 -79 78 -258 100 -409 49 -160 -54 -316 -147 -434 -260 -40
-38 -73 -64 -73 -59 0 5 11 47 25 94 30 104 30 112 1 174 -27 59 -71 100 -124
115 -49 13 -193 11 -262 -4z"/>
<path d="M7742 1719 c-53 -10 -92 -29 -105 -51 -9 -13 -2 -28 31 -72 23 -30
42 -61 42 -67 0 -7 -54 -226 -119 -488 -170 -676 -196 -796 -182 -843 19 -61
52 -73 208 -73 125 0 133 1 157 24 24 23 26 30 26 122 0 91 8 129 141 660 125
503 140 570 135 622 -8 84 -36 140 -79 160 -38 19 -176 22 -255 6z"/>
<path d="M2552 1689 c-77 -19 -134 -102 -245 -359 -133 -308 -203 -591 -214
-861 -7 -165 4 -216 57 -281 67 -81 231 -132 406 -126 98 3 104 5 195 50 52
26 128 70 169 97 41 27 76 48 77 47 2 -1 -2 -31 -8 -65 -14 -77 -5 -101 48
-126 55 -27 218 -33 277 -11 57 22 68 46 110 231 19 83 96 400 172 705 75 305
139 571 142 591 8 75 -43 110 -164 111 -132 0 -194 -51 -255 -212 -12 -30 -71
-253 -132 -495 -87 -350 -114 -444 -131 -457 -64 -54 -321 -166 -431 -189 -52
-10 -64 -10 -91 4 -17 9 -39 33 -49 53 -16 34 -17 49 -6 163 14 159 40 281 90
431 63 188 180 418 283 558 41 55 33 86 -33 119 -53 28 -195 39 -267 22z"/>
</g>
</svg>
